# xmcd
#
# Track frame offsets:
#	187
#	18660
#	44662
#	71192
#	80927
#	103397
#	114182
#	127742
#	146412
#	179715
#	194902
#	207407
#
# Disc length: 3102 seconds
#
# Revision: 1
# Processed by: cddbd v1.5.1PL0 Copyright (c) Steve Scherf et al.
# Submitted via: CDex 1.50Beta5
#
DISCID=c30c1c0c
DTITLE=五つの赤い風船 - フォーク・アルバム第一集
DYEAR=1995
DGENRE=
TTITLE0=遠い世界に
TTITLE1=遠い空の彼方から
TTITLE2=血まみれの鳩
TTITLE3=もしもボクの背中に羽根が生えていたら
TTITLE4=一つのことば
TTITLE5=恋は風に乗って
TTITLE6=まぼろしのつばさと共に
TTITLE7=時計
TTITLE8=母の生まれた街
TTITLE9=まるで洪水のように
TTITLE10=青い空の彼方から
TTITLE11=おとぎ話を聞きたいの
EXTD=
EXTT0=
EXTT1=
EXTT2=
EXTT3=
EXTT4=
EXTT5=
EXTT6=
EXTT7=
EXTT8=
EXTT9=
EXTT10=
EXTT11=
PLAYORDER=
